<svg width="24" height="28" viewBox="0 0 24 28" fill="none" xmlns="http://www.w3.org/2000/svg">
<path opacity="0.3" d="M22.666 14.668L2.11758 27.2355C1.94609 27.3396 1.75019 27.3967 1.54963 27.4009C1.34907 27.4052 1.15093 27.3564 0.975198 27.2597C0.799467 27.1629 0.652356 27.0215 0.548695 26.8498C0.445035 26.678 0.388491 26.482 0.384766 26.2814V1.14637C0.388491 0.945795 0.445035 0.749748 0.548695 0.577998C0.652356 0.406247 0.799467 0.264864 0.975198 0.168103C1.15093 0.0713429 1.34907 0.0226264 1.54963 0.0268662C1.75019 0.0311061 1.94609 0.088152 2.11758 0.192252L22.666 12.7598C22.8302 12.8591 22.9659 12.9991 23.0601 13.1663C23.1543 13.3334 23.2038 13.522 23.2038 13.7139C23.2038 13.9058 23.1543 14.0944 23.0601 14.2615C22.9659 14.4287 22.8302 14.5687 22.666 14.668Z" fill="black"/>
</svg>
