<svg width="26" height="31" viewBox="0 0 26 31" fill="none" xmlns="http://www.w3.org/2000/svg">
<path d="M24.263 13.7886L3.71457 1.21819C3.36813 1.00605 2.97134 0.890237 2.56518 0.882715C2.15902 0.875194 1.75821 0.976235 1.40415 1.1754C1.05347 1.37148 0.76134 1.65742 0.557806 2.00383C0.354272 2.35024 0.24668 2.74461 0.246094 3.14639V28.2843C0.248736 28.887 0.49059 29.4639 0.918487 29.8884C1.34639 30.3128 1.92531 30.5499 2.52799 30.5476C2.94864 30.5475 3.36113 30.4315 3.72028 30.2125L24.263 17.6421C24.5932 17.4408 24.8661 17.158 25.0555 16.8209C25.2448 16.4837 25.3443 16.1035 25.3443 15.7168C25.3443 15.3301 25.2448 14.9498 25.0555 14.6127C24.8661 14.2755 24.5932 13.9927 24.263 13.7914V13.7886ZM2.52799 28.2572V3.16493L23.0408 15.7153L2.52799 28.2572Z" fill="black"/>
</svg>
